<?xml version="1.0" encoding="UTF-8" standalone="no"?>
<svg
   xmlns:dc="http://purl.org/dc/elements/1.1/"
   xmlns:cc="http://creativecommons.org/ns#"
   xmlns:rdf="http://www.w3.org/1999/02/22-rdf-syntax-ns#"
   xmlns:svg="http://www.w3.org/2000/svg"
   xmlns="http://www.w3.org/2000/svg"
   width="20"
   height="20"
   viewBox="0 0 5.2916666 5.2916668"
   version="1.1"
   id="svg8">
  <defs
     id="defs2" />
  <metadata
     id="metadata5">
    <rdf:RDF>
      <cc:Work
         rdf:about="">
        <dc:format>image/svg+xml</dc:format>
        <dc:type
           rdf:resource="http://purl.org/dc/dcmitype/StillImage" />
        <dc:title></dc:title>
      </cc:Work>
    </rdf:RDF>
  </metadata>
  <g
     id="layer1"
     transform="translate(0,-291.7083)">
    <path
       style="opacity:1;vector-effect:none;fill:#1876d1;fill-opacity:1;stroke:none;stroke-width:0.71511668;stroke-linecap:butt;stroke-linejoin:miter;stroke-miterlimit:4;stroke-dasharray:none;stroke-dashoffset:0;stroke-opacity:1;paint-order:stroke markers fill"
       d="m 0.52848843,293.84665 c -0.31070491,2.3e-4 -0.56251985,0.25205 -0.562758,0.56275 -4.3e-5,0.3109 0.25185185,0.56304 0.56276027,0.56327 1.3969874,0 2.7939675,1e-5 4.1909548,1e-5 0.311106,5e-5 0.563324,-0.25217 0.5632742,-0.56328 -2.339e-4,-0.31091 -0.2523693,-0.5628 -0.5632693,-0.56276 -1.3969874,0 -2.7939746,1e-5 -4.19096197,1e-5 z"
       id="path820" />
    <path
       id="path922"
       d="m 3.1872396,292.31392 c -2.405e-4,-0.3107 -0.2520483,-0.56252 -0.562758,-0.56276 -0.3109008,-4e-5 -0.5630338,0.25185 -0.5632672,0.56276 0,1.39699 -7e-6,2.79397 -7e-6,4.19096 -4.95e-5,0.31111 0.2521684,0.56332 0.5632742,0.56328 0.3109077,-2.4e-4 0.5628075,-0.25238 0.562765,-0.56328 0,-1.39699 -7e-6,-2.79397 -7e-6,-4.19096 z"
       style="opacity:1;vector-effect:none;fill:#1876d1;fill-opacity:1;stroke:none;stroke-width:0.71511668;stroke-linecap:butt;stroke-linejoin:miter;stroke-miterlimit:4;stroke-dasharray:none;stroke-dashoffset:0;stroke-opacity:1;paint-order:stroke markers fill" />
  </g>
</svg>
