<?xml version="1.0" encoding="UTF-8" standalone="no"?>
<!-- Created with Inkscape (http://www.inkscape.org/) -->

<svg
   xmlns:dc="http://purl.org/dc/elements/1.1/"
   xmlns:cc="http://creativecommons.org/ns#"
   xmlns:rdf="http://www.w3.org/1999/02/22-rdf-syntax-ns#"
   xmlns:svg="http://www.w3.org/2000/svg"
   xmlns="http://www.w3.org/2000/svg"
   xmlns:sodipodi="http://sodipodi.sourceforge.net/DTD/sodipodi-0.dtd"
   xmlns:inkscape="http://www.inkscape.org/namespaces/inkscape"
   width="35"
   height="35"
   viewBox="0 0 9.2604165 9.2604169"
   version="1.1"
   id="svg8"
   inkscape:version="0.92.5 (2060ec1f9f, 2020-04-08)"
   sodipodi:docname="add-button.svg">
  <defs
     id="defs2" />
  <sodipodi:namedview
     id="base"
     pagecolor="#ffffff"
     bordercolor="#666666"
     borderopacity="1.0"
     inkscape:pageopacity="0.0"
     inkscape:pageshadow="2"
     inkscape:zoom="22.4"
     inkscape:cx="16.715709"
     inkscape:cy="13.438211"
     inkscape:document-units="mm"
     inkscape:current-layer="layer1"
     showgrid="false"
     units="px"
     inkscape:snap-bbox="true"
     inkscape:snap-bbox-edge-midpoints="true"
     inkscape:snap-smooth-nodes="true"
     inkscape:window-width="1920"
     inkscape:window-height="1176"
     inkscape:window-x="0"
     inkscape:window-y="0"
     inkscape:window-maximized="1" />
  <metadata
     id="metadata5">
    <rdf:RDF>
      <cc:Work
         rdf:about="">
        <dc:format>image/svg+xml</dc:format>
        <dc:type
           rdf:resource="http://purl.org/dc/dcmitype/StillImage" />
        <dc:title></dc:title>
      </cc:Work>
    </rdf:RDF>
  </metadata>
  <g
     inkscape:label="Ebene 1"
     inkscape:groupmode="layer"
     id="layer1"
     transform="translate(0,-287.73955)">
    <path
       style="opacity:1;vector-effect:none;fill:#1876d1;fill-opacity:1;stroke:none;stroke-width:2.70280313;stroke-linecap:butt;stroke-linejoin:miter;stroke-miterlimit:4;stroke-dasharray:none;stroke-dashoffset:0;stroke-opacity:1;paint-order:stroke markers fill"
       d="M 17.5 0 A 17.500001 17.500001 0 0 0 0 17.5 A 17.500001 17.500001 0 0 0 17.5 35 A 17.500001 17.500001 0 0 0 35 17.5 A 17.500001 17.500001 0 0 0 17.5 0 z M 17.5 4.2910156 A 13.208984 13.208984 0 0 1 30.708984 17.5 A 13.208984 13.208984 0 0 1 17.5 30.708984 A 13.208984 13.208984 0 0 1 4.2910156 17.5 A 13.208984 13.208984 0 0 1 17.5 4.2910156 z "
       transform="matrix(0.26458333,0,0,0.26458333,0,287.73955)"
       id="path815" />
    <path
       style="opacity:1;vector-effect:none;fill:#1876d1;fill-opacity:1;stroke:none;stroke-width:3.83541489;stroke-linecap:butt;stroke-linejoin:miter;stroke-miterlimit:4;stroke-dasharray:none;stroke-dashoffset:0;stroke-opacity:1;paint-order:stroke markers fill"
       d="M 17.556641 7.3964844 A 2.1285762 2.1285762 0 0 0 15.427734 9.5234375 L 15.427734 15.316406 L 9.6367188 15.316406 A 2.1285762 2.1285762 0 0 0 7.5097656 17.443359 A 2.1285762 2.1285762 0 0 0 9.6367188 19.572266 L 15.427734 19.572266 L 15.427734 25.363281 A 2.1285762 2.1285762 0 0 0 17.556641 27.492188 A 2.1285762 2.1285762 0 0 0 19.685547 25.363281 L 19.685547 19.572266 L 25.476562 19.572266 A 2.1285762 2.1285762 0 0 0 27.605469 17.443359 A 2.1285762 2.1285762 0 0 0 25.476562 15.316406 L 19.685547 15.316406 L 19.685547 9.5234375 A 2.1285762 2.1285762 0 0 0 17.556641 7.3964844 z "
       transform="matrix(0.26458333,0,0,0.26458333,0,287.73955)"
       id="path820" />
  </g>
</svg>
