<?xml version="1.0" encoding="UTF-8" standalone="no"?>
<svg
   xmlns:dc="http://purl.org/dc/elements/1.1/"
   xmlns:cc="http://creativecommons.org/ns#"
   xmlns:rdf="http://www.w3.org/1999/02/22-rdf-syntax-ns#"
   xmlns:svg="http://www.w3.org/2000/svg"
   xmlns="http://www.w3.org/2000/svg"
   id="svg8"
   version="1.1"
   viewBox="0 0 5.2916666 5.2916668"
   height="20"
   width="20">
  <defs
     id="defs2" />
  <metadata
     id="metadata5">
    <rdf:RDF>
      <cc:Work
         rdf:about="">
        <dc:format>image/svg+xml</dc:format>
        <dc:type
           rdf:resource="http://purl.org/dc/dcmitype/StillImage" />
        <dc:title></dc:title>
      </cc:Work>
    </rdf:RDF>
  </metadata>
  <g
     transform="translate(0,-291.7083)"
     id="layer1">
    <path
       id="path820"
       d="m 0.74420509,295.49346 c -0.2195331,0.21987 -0.2195332,0.57599 0,0.79586 0.2198092,0.21987 0.57621231,0.22004 0.79622321,3.6e-4 0.9878185,-0.98782 1.9756367,-1.97563 2.9634551,-2.96345 0.2200204,-0.21995 0.2200204,-0.57664 0,-0.79659 -0.2200108,-0.21968 -0.576414,-0.21951 -0.7962231,3.6e-4 -0.9878185,0.98782 -1.9756367,1.97564 -2.96345521,2.96346 z"
       style="opacity:1;vector-effect:none;fill:#b33636;fill-opacity:1;stroke:none;stroke-width:0.71511668;stroke-linecap:butt;stroke-linejoin:miter;stroke-miterlimit:4;stroke-dasharray:none;stroke-dashoffset:0;stroke-opacity:1;paint-order:stroke markers fill" />
    <path
       style="opacity:1;vector-effect:none;fill:#b33636;fill-opacity:1;stroke:none;stroke-width:0.71511668;stroke-linecap:butt;stroke-linejoin:miter;stroke-miterlimit:4;stroke-dasharray:none;stroke-dashoffset:0;stroke-opacity:1;paint-order:stroke markers fill"
       d="m 1.540427,292.52964 c -0.21987,-0.21953 -0.57599001,-0.21954 -0.79586001,0 -0.21987,0.21981 -0.22004,0.57621 -3.6e-4,0.79622 0.98782001,0.98782 1.97563001,1.97564 2.96345001,2.96346 0.21995,0.22002 0.57664,0.22002 0.79659,0 0.21968,-0.22001 0.21951,-0.57642 -3.6e-4,-0.79623 -0.98782,-0.98782 -1.97564,-1.97563 -2.96346,-2.96345 z"
       id="path922" />
  </g>
</svg>
